<svg width="90" height="110" viewBox="0 0 90 110" xmlns="http://www.w3.org/2000/svg"><title>eco</title><desc>Created with Sketch.</desc><path d="M89.954 56.294c0-.824-.669-1.483-1.506-1.483-.837-.165-21.751-2.142-42.163 8.402-6.358 3.295-9.872 8.567-9.537 14.497.335 5.601 3.848 11.203 8.868 14.168-10.206 4.942-19.576 6.095-27.272 2.965-.837-.329-1.84 0-2.175.824-.335.824 0 1.812.837 2.142 3.346 1.318 7.027 2.142 10.875 2.142 9.537 0 20.412-4.448 31.623-12.685l11.879 4.448c.167 0 .335.165.669.165.669 0 1.339-.329 1.506-.988.335-.824-.167-1.812-1.004-2.142l-10.039-3.789c2.342-1.812 4.852-3.954 7.195-6.096l8.868 1.647h.335c.837 0 1.506-.494 1.673-1.318.167-.824-.335-1.812-1.339-1.977l-6.693-1.318c4.518-4.448 9.035-9.39 13.553-14.992 0 6.919-.837 20.428-5.354 30.477-6.693 14.992-15.728 15.651-19.409 15.156-5.019-.659-9.37-4.119-10.039-8.237-.167-.824-1.004-1.483-2.008-1.318-.837.165-1.506.988-1.339 1.977 1.004 5.601 6.525 10.214 12.883 10.873.502 0 1.171.165 1.84.165 5.019 0 14.389-2.306 20.914-17.298 7.362-14.497 6.358-35.585 6.358-36.408zm-19.925 17.197l-2.161-8.467c-.166-.83-1.163-1.494-1.994-1.162-.831.166-1.496 1.162-1.163 1.992l2.493 10.293c-2.327 2.158-4.82 4.316-7.146 6.143l-4.487-11.621c-.332-.83-1.33-1.328-2.161-.996-.831.332-1.33 1.328-.997 2.158l4.82 12.451c-2.659 2.158-5.318 3.818-7.977 5.479-4.986-2.158-8.808-7.305-9.141-12.617-.166-3.32.997-7.969 7.645-11.621 14.957-7.803 30.413-8.467 36.895-8.301-4.986 6.143-9.805 11.455-14.625 16.27zm-69.982-19.784c0 .824.669 1.483 1.506 1.483.837.165 21.751 2.142 42.163-8.402 6.358-3.295 9.872-8.567 9.537-14.497-.335-5.601-3.848-11.203-8.868-14.168 10.206-4.942 19.576-6.095 27.272-2.965.837.329 1.84 0 2.175-.824.335-.824 0-1.812-.837-2.142-3.346-1.318-7.027-2.142-10.875-2.142-9.537 0-20.412 4.448-31.623 12.685l-11.879-4.448c-.167 0-.335-.165-.669-.165-.669 0-1.339.329-1.506.988-.335.824.167 1.812 1.004 2.142l10.039 3.789c-2.342 1.812-4.852 3.954-7.195 6.096l-8.868-1.647h-.335c-.837 0-1.506.494-1.673 1.318-.167.824.335 1.812 1.339 1.977l6.693 1.318c-4.518 4.448-9.035 9.39-13.553 14.992 0-6.919.837-20.428 5.354-30.477 6.693-14.992 15.728-15.651 19.409-15.156 5.019.659 9.37 4.119 10.039 8.237.167.824 1.004 1.483 2.008 1.318.837-.165 1.506-.988 1.339-1.977-1.004-5.601-6.525-10.214-12.883-10.873-.502 0-1.171-.165-1.84-.165-5.019 0-14.389 2.306-20.914 17.298-7.362 14.497-6.358 35.585-6.358 36.408zm19.034-17.363l2.161 8.467c.166.83 1.163 1.494 1.994 1.162.831-.166 1.496-1.162 1.163-1.992l-2.493-10.293c2.327-2.158 4.82-4.316 7.146-6.143l4.487 11.621c.332.83 1.33 1.328 2.161.996.831-.332 1.33-1.328.997-2.158l-4.986-12.451c2.825-1.992 5.484-3.818 8.143-5.313 4.986 2.158 8.808 7.305 9.141 12.617.166 3.32-.997 7.969-7.645 11.621-14.957 7.803-30.413 8.467-36.895 8.301 4.986-6.309 9.805-11.621 14.625-16.436z" fill-rule="nonzero" fill="#31BB0E"/></svg>