<svg width="100" height="100" viewBox="0 0 100 100" xmlns="http://www.w3.org/2000/svg"><title>choice</title><desc>Created with Sketch.</desc><path d="M88.418 35.033c-.317 0-.628.022-.938.047v-1.922c0-8.358-6.843-15.158-15.254-15.158h-44.451c-8.411 0-15.254 6.8-15.254 15.158v1.922c-.31-.025-.621-.047-.938-.047-6.387 0-11.582 5.163-11.582 11.509 0 4.638 2.847 8.807 7.062 10.584v2.609c0 2.697 1.1 5.143 2.878 6.92-1.693.781-2.878 2.474-2.878 4.448 0 2.708 2.218 4.912 4.943 4.912h5.226v4.3c0 .931.759 1.684 1.694 1.684.936 0 1.694-.754 1.694-1.684v-4.3h59.04v4.3c0 .931.759 1.684 1.694 1.684.936 0 1.694-.754 1.694-1.684v-4.3h4.943c2.726 0 4.943-2.204 4.943-4.912 0-1.974-1.184-3.668-2.878-4.448 1.777-1.778 2.878-4.223 2.878-6.92v-2.609c4.218-1.776 7.064-5.947 7.064-10.584 0-6.346-5.196-11.509-11.582-11.509zm-4.328-1.875v2.717c-4.247 1.708-7.254 5.842-7.254 10.667l.033.561h-5.38c-1.743 0-3.157-1.404-3.157-3.137v-19.461c0-1.732 1.413-3.137 3.157-3.137h.736c6.554 0 11.866 5.278 11.866 11.79zm-38.358 13.945h-8.687c-1.743 0-3.157-1.404-3.157-3.137v-19.461c0-1.732 1.413-3.137 3.157-3.137h8.687c1.743 0 3.157 1.404 3.157 3.137v19.461c0 1.732-1.413 3.137-3.157 3.137zm8.536-25.734h8.687c1.743 0 3.157 1.404 3.157 3.137v19.461c0 1.732-1.413 3.137-3.157 3.137h-8.687c-1.743 0-3.157-1.404-3.157-3.137v-19.461c0-1.732 1.413-3.137 3.157-3.137zm-38.358 11.79c0-6.511 5.312-11.79 11.864-11.79h.736c1.743 0 3.157 1.404 3.157 3.137v19.461c0 1.732-1.413 3.137-3.157 3.137h-5.38l.033-.561c0-4.825-3.007-8.96-7.254-10.667v-2.717h.001zm-8.27 20.491c-2.561-1.406-4.251-4.111-4.251-7.107 0-4.488 3.676-8.14 8.192-8.14 4.517 0 8.192 3.652 8.192 8.14l-.033.561h-2.792c-4.292 0-7.944 2.738-9.308 6.546zm80.354 18.998h-75.989c-.857 0-1.553-.692-1.553-1.544 0-.851.697-1.544 1.553-1.544h75.988c.857 0 1.553.692 1.553 1.544 0 .851-.697 1.544-1.553 1.544zm1.553-12.912c0 3.56-2.914 6.456-6.497 6.456h-66.102c-3.582 0-6.497-2.896-6.497-6.456v-2.807c0-3.56 2.914-6.456 6.497-6.456h66.102c3.582 0 6.497 2.896 6.497 6.456v2.807zm2.812-6.086c-1.363-3.807-5.016-6.546-9.309-6.546h-2.792l-.033-.561c0-4.488 3.676-8.14 8.192-8.14 4.517 0 8.192 3.652 8.192 8.14 0 2.997-1.69 5.702-4.25 7.107z" fill-rule="nonzero" fill="#222"/></svg>