<svg width="100" height="100" viewBox="0 0 100 100" xmlns="http://www.w3.org/2000/svg"><title>credit</title><desc>Created with Sketch.</desc><g transform="translate(10 17)" stroke="#222" fill-rule="nonzero" stroke-width=".95" fill="#222"><path d="M68.937 20c.531 0 1.063-.516 1.063-1.033v-7.229c0-1.807-1.594-3.356-3.455-3.356h-5.581l-1.329-3.718c-.106-.516-.797-.775-1.329-.62l-30.56 9.036c-.531.103-.957.775-.638 1.291.106.413.531.775 1.063.775h.266l29.497-8.778 2.764 11.979c.106.516.797.775 1.329.62.531-.155.797-.775.638-1.291l-1.222-7.229h4.943c.797 0 1.329.62 1.329 1.291v7.229c.159.516.691 1.033 1.222 1.033zM76.747 31.507c-.533 0-1.067.531-1.067 1.061 0 .531.533 1.061 1.067 1.061.8 0 1.067.265 1.067 1.061v12.627c0 .796-.267 1.061-1.067 1.061h-16.8c-.8 0-1.067-.265-1.067-1.061v-10.505c0-.796.267-1.061 1.067-1.061h12.693c.533 0 1.067-.531 1.067-1.061v-12.627c0-1.857-1.227-3.183-3.2-3.183h-64.267c-2.56 0-4.267-1.592-4.267-4.244 0-2.547 1.6-4.244 4.267-4.244h10.667l-6.4 2.122c-.533.106-.8.796-.64 1.326.107.424.533.637 1.067.637h.267l38.133-12.468c.533-.106.8-.796.64-1.326-.16-.531-.8-.796-1.333-.637l-25.44 8.383h-16.907c-3.733 0-6.293 2.547-6.293 6.26v46.051c0 3.714 2.56 6.26 6.293 6.26h64.267c1.867 0 3.2-1.167 3.2-3.183v-10.505c0-.531-.533-1.061-1.067-1.061-.533 0-1.067.531-1.067 1.061v10.505c0 .796-.267 1.061-1.067 1.061h-64.267c-2.56 0-4.267-1.592-4.267-4.244v-41.064c1.067.955 2.56 1.486 4.267 1.486h64.267c.8 0 1.067.265 1.067 1.061v11.566h-11.627c-1.867 0-3.2 1.167-3.2 3.183v10.505c0 1.857 1.227 3.183 3.2 3.183h16.8c1.867 0 3.2-1.167 3.2-3.183v-12.627c-.053-1.91-1.227-3.236-3.253-3.236z" id="Shape"/><circle cx="68" cy="42" r="2"/><path d="M8.073 62h31.855c.59 0 1.073-.45 1.073-1s-.483-1-1.073-1h-31.855c-.59 0-1.073.45-1.073 1 .054.45.483 1 1.073 1z"/></g></svg>