<svg width="100" height="100" viewBox="0 0 100 100" xmlns="http://www.w3.org/2000/svg"><title>delivery</title><desc>Created with Sketch.</desc><g fill="#222"><path d="M70.802 43c-.995 0-1.802.847-1.802 1.893v9.215c0 1.045.807 1.892 1.802 1.893h12.395c.675 0 1.293-.396 1.602-1.025.309-.629.258-1.387-.133-1.965l-6.243-9.215c-.338-.499-.886-.795-1.469-.795h-6.152zm1.802 3.785h3.42l3.678 5.43h-7.098v-5.43zM14.922 27.003c-3.248 0-5.922 2.659-5.922 5.89v32.163c0 3.231 2.673 5.89 5.922 5.89h5.778c.987 3.48 4.218 6.055 8.024 6.055 3.805 0 7.037-2.573 8.025-6.055h32.577c.988 3.481 4.221 6.055 8.024 6.055 3.803 0 7.036-2.574 8.024-6.055h.748c2.673 0 4.865-2.191 4.865-4.839v-11.732c.033-.264.009-.532-.071-.786l-.037-.11-.002-.009-.001-.001c-.084-.234-.214-.449-.383-.631l-9.948-13.727c-.35-.483-.912-.769-1.51-.77l-12.062-.008v-5.44c0-3.231-2.673-5.89-5.922-5.89h-46.129l-.001.003zm0 3.706h46.129c1.221 0 2.195.969 2.195 2.184v34.347h-26.32c-.703-3.867-4.125-6.827-8.202-6.827-4.076 0-7.498 2.96-8.202 6.827h-5.6c-1.221 0-2.195-.968-2.195-2.184v-32.163c0-1.215.974-2.184 2.195-2.184zm52.05 11.33l11.106.007 9.181 12.669v11.391c0 .626-.501 1.133-1.139 1.133h-.569c-.703-3.867-4.125-6.827-8.202-6.827-4.076 0-7.498 2.96-8.202 6.827h-2.176v-25.201zm-38.248 22.08c2.564 0 4.608 2.03 4.608 4.592v.1c-.054 2.501-2.073 4.484-4.608 4.484-2.566 0-4.599-2.022-4.608-4.565v-.014c0-2.562 2.044-4.592 4.608-4.592v-.005zm48.626 0c2.564 0 4.608 2.03 4.608 4.592 0 2.551-2.044 4.583-4.608 4.583-2.564 0-4.608-2.033-4.608-4.583 0-2.562 2.044-4.592 4.608-4.592zM39.883 40c-.67-.009-1.293.37-1.63.993-.337.622-.337 1.392 0 2.015.337.622.96 1.002 1.63.993h18.234c.67.009 1.293-.37 1.63-.993.337-.622.337-1.392 0-2.015-.337-.622-.96-1.002-1.63-.993h-18.234zM30.862 48c-.662-.009-1.278.37-1.612.993-.334.622-.334 1.392 0 2.015.334.622.949 1.002 1.612.993h26.277c.662.009 1.278-.37 1.612-.993.334-.622.334-1.392 0-2.015-.334-.622-.949-1.002-1.612-.993h-26.277zM13.873 79c-.666-.009-1.285.37-1.621.993-.336.622-.336 1.392 0 2.014.336.622.955 1.002 1.621.993h70.255c.666.009 1.285-.37 1.621-.993.336-.622.336-1.392 0-2.014-.336-.622-.955-1.002-1.621-.993h-70.255z"/></g></svg>