<?xml version="1.0" encoding="UTF-8"?>
<svg width="100px" height="100px" viewBox="0 0 100 100" version="1.1" xmlns="http://www.w3.org/2000/svg" xmlns:xlink="http://www.w3.org/1999/xlink">
    <!-- Generator: Sketch 46.2 (44496) - http://www.bohemiancoding.com/sketch -->
    <title>delivery</title>
    <desc>Created with Sketch.</desc>
    <defs></defs>
    <g id="Page-1" stroke="none" stroke-width="1" fill="none" fill-rule="evenodd">
        <g id="delivery" fill="#222222">
            <g id="Group-12" transform="translate(9.000000, 27.000000)">
                <path d="M61.8024518,16 C60.807059,16.0001774 60.0001744,16.8473973 60,17.8925545 L60,27.1074834 C60.0001943,28.1526258 60.8070731,28.9998226 61.8024518,29 L74.1976409,29 C74.8721582,28.9998409 75.4901634,28.6043223 75.7993905,27.9748926 C76.1086177,27.3454629 76.0573293,26.5874333 75.666461,26.0102269 L69.4236289,16.7953169 C69.0853994,16.2963114 68.538125,15.9999806 67.9548089,16 L61.8024518,16 L61.8024518,16 Z M63.6049036,19.7851184 L67.0248909,19.7851184 L70.7032959,25.21491 L63.6049036,25.21491 L63.6049036,19.7851184 Z" id="Shape"></path>
                <path d="M5.92152211,0.00259445387 C2.67315104,0.00259445387 0,2.66142785 0,5.89223639 L0,38.0553197 C0,41.286156 2.67315104,43.945008 5.92152211,43.945008 L11.699505,43.945008 C12.6865341,47.4250045 15.9173533,50 19.7236443,50 C23.5286218,50 26.760885,47.427043 27.7483706,43.945008 L60.3256136,43.945008 C61.3136302,47.4260238 64.5464338,50 68.3491753,50 C72.1519075,50 75.3846924,47.4260238 76.3727277,43.945008 L77.1203782,43.945008 C79.7931472,43.945008 81.9853517,41.7538063 81.9853517,39.1061662 L81.9853517,27.3737678 C82.0188512,27.1096267 81.9947331,26.8414078 81.9146393,26.5873703 C81.9035669,26.5502119 81.8913252,26.5134082 81.8779323,26.4770133 C81.8773191,26.4739231 81.876698,26.4708345 81.876069,26.4677474 C81.8758827,26.4674385 81.8756964,26.4671296 81.87551,26.4668208 C81.7915401,26.2329014 81.6611469,26.0181571 81.4920794,25.8353493 L71.5443681,12.1078715 C71.1944642,11.6250123 70.632664,11.3386888 70.0342165,11.3382175 L57.9722427,11.3298781 L57.9722427,5.88963267 C57.9722427,2.65883339 55.2990917,0 52.0507202,0 L5.9220252,0 L5.92152211,0.00259445387 Z M5.92152211,3.70838264 L52.0502171,3.70838264 C53.271538,3.70838264 54.2454215,4.67714245 54.2454215,5.89223639 L54.2454215,40.2389233 L27.9253844,40.2389233 C27.2219222,36.3716118 23.7999747,33.4119885 19.7236443,33.4119885 C15.6472674,33.4119885 12.2253851,36.3716118 11.5219136,40.2389233 L5.92152211,40.2389233 C4.70019191,40.2389233 3.72602929,39.2704507 3.72602929,38.0553197 L3.72602929,5.89223639 C3.72602929,4.67714245 4.70020123,3.70838264 5.92152211,3.70838264 Z M57.9717396,15.03827 L69.0781928,15.0456828 L78.2590336,27.7151238 L78.2590336,39.1057955 C78.2590336,39.7321708 77.7579634,40.2385526 77.1203782,40.2385526 L76.5509154,40.2385526 C75.8474345,36.3712411 72.4255522,33.4116179 68.3491753,33.4116179 C64.272789,33.4116179 60.8508881,36.3712411 60.1474352,40.2385526 L57.9717396,40.2385526 L57.9717396,15.0378716 L57.9717396,15.03827 Z M19.7236443,37.1180732 C22.2876151,37.1180732 24.3312491,39.1479554 24.3312491,41.7104419 L24.3312491,41.8103284 C24.2774089,44.3117525 22.2580817,46.2939153 19.7236443,46.2939153 C17.157978,46.2939153 15.1250673,44.2715385 15.1157601,41.7292517 C15.1157601,41.7292517 15.1157601,41.7292517 15.1157601,41.7292517 L15.1157601,41.7153528 C15.1157601,39.1528663 17.1595618,37.1229842 19.7236443,37.1229842 L19.7236443,37.1180732 Z M68.3491753,37.1180732 C70.9132579,37.1180732 72.9570688,39.1479554 72.9570688,41.7104419 C72.9570688,44.261068 70.9132579,46.2939153 68.3491753,46.2939153 C65.7850834,46.2939153 63.7412817,44.2611607 63.7412817,41.7104419 C63.7412817,39.1479554 65.7850834,37.1180732 68.3491753,37.1180732 Z" id="Shape"></path>
                <path d="M30.8829591,13.0001607 C30.2130938,12.9910464 29.5904547,13.3702078 29.253052,13.9927063 C28.9156493,14.6152047 28.9156493,15.3847953 29.253052,16.0072937 C29.5904547,16.6297922 30.2130938,17.0089536 30.8829591,16.9998393 L49.1170409,16.9998393 C49.7869062,17.0089536 50.4095453,16.6297922 50.746948,16.0072937 C51.0843507,15.3847953 51.0843507,14.6152047 50.746948,13.9927063 C50.4095453,13.3702078 49.7869062,12.9910464 49.1170409,13.0001607 L30.8829591,13.0001607 L30.8829591,13.0001607 Z" id="Shape"></path>
                <path d="M21.8617068,21.0001607 C21.199402,20.9910464 20.5837904,21.3702078 20.2501959,21.9927063 C19.9166014,22.6152047 19.9166014,23.3847953 20.2501959,24.0072937 C20.5837904,24.6297922 21.199402,25.0089536 21.8617068,24.9998393 L48.1382932,24.9998393 C48.800598,25.0089536 49.4162096,24.6297922 49.7498041,24.0072937 C50.0833986,23.3847953 50.0833986,22.6152047 49.7498041,21.9927063 C49.4162096,21.3702078 48.800598,20.9910464 48.1382932,21.0001607 L21.8617068,21.0001607 L21.8617068,21.0001607 Z" id="Shape"></path>
                <path d="M4.87255811,52.0001557 C4.2063481,51.9911861 3.58716435,52.3703805 3.25164187,52.992821 C2.91611938,53.6152615 2.91611938,54.3847385 3.25164187,55.007179 C3.58716435,55.6296195 4.2063481,56.0088139 4.87255811,55.9998443 L75.1274419,55.9998443 C75.7936519,56.0088139 76.4128356,55.6296195 76.7483581,55.007179 C77.0838806,54.3847385 77.0838806,53.6152615 76.7483581,52.992821 C76.4128356,52.3703805 75.7936519,51.9911861 75.1274419,52.0001557 L4.87255811,52.0001557 Z" id="Shape"></path>
            </g>
        </g>
    </g>
</svg>