<svg width="1700" height="30" viewBox="0 0 1700 30" xmlns="http://www.w3.org/2000/svg"><title>logo</title><desc>Created with Sketch.</desc><g fill-rule="nonzero" fill="none"><path d="M1700 29.921c-21.134.039-1618.047.039-1639.181.079-1.921 0-2.549-1.335-2.549-2.709-.078-8.167-.078-16.334 0-24.5 0-1.296.314-2.866 2.196-2.788 1.804.079 2.157 1.413 2.157 2.945 0 6.95.039 13.86-.039 20.81 0 1.413.314 1.885 1.843 1.885 19.409-.079 1614.518-.079 1633.927-.079.549 0 1.176.196 1.647-.314v4.672z" id="Shape" fill="#FE7E1D"/><path d="M6.793 24.222c-1.694-.077-3.585-.232-5.319-1.16-1.261-.696-1.812-1.702-1.261-3.056.552-1.354 1.694-1.431 2.955-1.083 1.34.348 2.6.967 4.019.928 1.458-.039 2.6-.542 2.876-2.089.276-1.508-.827-2.011-2.009-2.437-1.3-.425-2.64-.774-3.94-1.238-2.127-.774-3.822-2.05-4.019-4.487-.236-2.708.749-4.874 3.073-6.305 2.837-1.741 5.831-1.625 8.825-.271 1.34.619 1.852 1.663 1.3 3.017-.552 1.315-1.655 1.508-2.955 1.044-1.103-.387-2.246-.735-3.467-.542-.906.155-1.615.619-1.733 1.586-.118.928.473 1.431 1.261 1.702.985.348 1.97.696 2.955 1.006 4.531 1.392 6.264 3.791 5.634 7.736-.591 3.442-3.743 5.686-8.195 5.647zM56.498 16.513c0 1.655.077 3.348 0 5.003-.154 2.232-1.892 3.079-3.553 1.616-.811-.693-1.197-.192-1.815.077-2.278 1.001-4.518.924-6.603-.423-1.699-1.078-2.085-2.81-1.969-4.734.154-2.232 1.699-3.31 3.553-4.118 1.506-.654 3.128-.654 4.711-.808.579-.077 1.39.038 1.352-.962-.039-.885-.618-1.078-1.429-1.193-1.236-.192-2.278.192-3.282.847-.965.616-2.008.731-2.703-.308-.695-1.039-.232-1.924.656-2.694 2.162-1.886 6.951-2.155 9.268-.5 1.236.885 1.776 2.155 1.815 3.656v4.542zm-6.024-.154c-1.043 0-2.085.038-2.973.693-.927.693-1.313 1.616-.348 2.579 1.158 1.155 3.977.654 4.75-.77.927-1.732.463-2.54-1.429-2.502z" id="Shape" fill="#3197D9"/><path d="M72.222 16.635c0-1.488-.039-3.016 0-4.504.039-.979.471-1.801 1.453-2.115.864-.313 1.768-.196 2.278.627.511.783 1.061.47 1.65.235 4.282-1.762 8.682-1.762 13.12-.744 2.514.587 4.125 2.389 4.321 4.935.157 1.958.118 3.916.039 5.874-.039 1.41-.707 2.389-2.278 2.389-1.493 0-2.003-1.057-2.082-2.311-.079-1.214 0-2.467-.039-3.72-.039-2.193-1.021-3.407-3.182-3.799-2.396-.431-4.832-.548-7.228 0-3.221.744-3.889 1.958-3.653 4.347.118 1.175.039 2.35-.039 3.525-.118 1.175-.864 1.919-2.082 1.958-1.296.039-2.121-.705-2.2-1.997-.079-1.567-.039-3.133-.039-4.7h-.039z" id="Shape" fill="#FE7E1D"/><path d="M23.171 23.889c-4.339-.077-7.536-3.656-7.498-8.39.038-4.657 3.464-8.352 7.689-8.275 4.149.077 7.498 3.926 7.422 8.544-.076 4.695-3.35 8.159-7.613 8.121zm-3.235-8.352c-.038 2.386 1.37 4.272 3.159 4.349 1.903.038 3.35-1.693 3.426-4.08.076-2.656-1.332-4.503-3.388-4.465-1.903 0-3.159 1.655-3.197 4.195zM34.679 16.982c0-.97.078-1.94 0-2.91-.078-1.086.661-2.561-1.556-2.599-.622 0-1.323-1.125-1.206-2.211.117-.854.545-1.591 1.362-1.668 1.439-.078 1.362-.97 1.478-1.979.35-2.716 2.529-4.306 5.252-3.88 1.05.155 2.062.466 2.14 1.823.078 1.28-.506 1.94-1.79 2.017-.739.039-1.245.388-1.245 1.203.039.892.778.698 1.323.737 1.284.078 2.14.582 2.101 1.979-.039 1.397-.973 1.901-2.218 1.862-1.089-.039-1.284.504-1.284 1.435.039 2.793 0 5.548 0 8.341 0 1.474-.389 2.793-2.218 2.755-1.828-.039-2.14-1.358-2.14-2.832 0-1.358-.039-2.716 0-4.074z" id="Shape" fill="#3197D9"/><path d="M69.94 15.456c0 1.882.078 3.803-.039 5.685-.078 1.412-.471 2.823-2.315 2.745-1.727-.039-2.08-1.294-2.08-2.745 0-3.803-.039-7.567 0-11.37 0-1.255.039-2.549 1.884-2.549 1.805 0 2.472.902 2.512 2.509.078 1.921.039 3.842.039 5.724z" id="Shape" fill="#FE7E1D"/><path d="M101.293 15.652c0 1.933.041 3.867 0 5.8-.041 1.392-.649 2.436-2.27 2.436-1.622 0-2.189-1.044-2.189-2.436v-11.794c0-1.392.608-2.436 2.23-2.436 1.622 0 2.189 1.083 2.23 2.475.041 1.972 0 3.983 0 5.955zM99.352 6.667c-1.56-.134-2.668-1.03-2.504-2.643.123-1.434.739-2.912 2.504-2.912 1.395 0 2.668 1.434 2.504 2.957-.205 1.568-.985 2.554-2.504 2.599zM70.526 2.489c-.041 2.067-1.156 3.191-2.684 3.056-1.528-.135-2.354-1.123-2.354-2.831 0-1.618 1.197-2.876 2.684-2.696 1.445.225 2.312 1.123 2.354 2.472z" fill="#3197D9"/></g></svg>