<?xml version="1.0" encoding="UTF-8"?>
<svg width="90px" height="110px" viewBox="0 0 90 110" version="1.1" xmlns="http://www.w3.org/2000/svg" xmlns:xlink="http://www.w3.org/1999/xlink">
    <!-- Generator: Sketch 46.2 (44496) - http://www.bohemiancoding.com/sketch -->
    <title>eco</title>
    <desc>Created with Sketch.</desc>
    <defs></defs>
    <g id="Page-1" stroke="none" stroke-width="1" fill="none" fill-rule="evenodd">
        <g id="Sofalini-05" transform="translate(-136.000000, -1954.000000)" fill-rule="nonzero" fill="#31BB0E">
            <g id="Group-29" transform="translate(86.000000, 1954.000000)">
                <path d="M139.953903,56.2937031 C139.953903,55.4699868 139.284642,54.8110139 138.448065,54.8110139 C137.611488,54.6462706 116.69707,52.6693517 96.2845978,63.2129192 C89.9266146,66.5077841 86.4129924,71.7795678 86.7476231,77.7103245 C87.0822538,83.3115948 90.595876,88.912865 95.6153364,91.8782434 C85.4091003,96.8205406 76.039441,97.9737433 68.3429351,94.8436217 C67.5063583,94.5141352 66.5024663,94.8436217 66.1678356,95.6673379 C65.8332049,96.4910541 66.1678356,97.4795136 67.0044123,97.8090001 C70.3507192,99.126946 74.0316568,99.9506622 77.8799098,99.9506622 C87.4168845,99.9506622 98.2923819,95.5025947 109.50251,87.2654326 L121.3819,91.7135001 C121.549215,91.7135001 121.71653,91.8782434 122.051161,91.8782434 C122.720422,91.8782434 123.389684,91.5487569 123.556999,90.8897839 C123.89163,90.0660677 123.389684,89.0776082 122.553107,88.7481218 L112.514186,84.9590272 C114.856601,83.1468515 117.366331,81.0051894 119.708746,78.8635272 L128.576459,80.5109597 C128.743775,80.5109597 128.743775,80.5109597 128.91109,80.5109597 C129.747667,80.5109597 130.416928,80.0167299 130.584244,79.1930137 C130.751559,78.3692975 130.249613,77.3808381 129.245721,77.2160948 L122.553107,75.8981489 C127.070621,71.4500813 131.588136,66.5077841 136.10565,60.9065138 C136.10565,67.82573 135.269073,81.3346759 130.751559,91.3840136 C124.058945,106.375649 115.023916,107.034622 111.342979,106.540392 C106.323518,105.881419 101.97332,102.421811 101.304058,98.3032298 C101.136743,97.4795136 100.300166,96.8205406 99.296274,96.9852839 C98.4596973,97.1500271 97.7904359,97.9737433 97.9577512,98.9622028 C98.9616433,104.563473 104.48305,109.176284 110.841033,109.835257 C111.342979,109.835257 112.01224,110 112.681502,110 C117.700962,110 127.070621,107.693595 133.59592,92.7019596 C140.957795,78.2045543 139.953903,57.1174193 139.953903,56.2937031 Z M120.028468,73.4903527 L117.867957,65.0234954 C117.701764,64.1934114 116.704605,63.5293442 115.873639,63.8613778 C115.042674,64.0273946 114.377901,65.0234954 114.710287,65.8535795 L117.203185,76.1466217 C114.87648,78.3048402 112.383583,80.4630587 110.056879,82.2892436 L105.569664,70.668067 C105.237278,69.8379829 104.240119,69.3399325 103.409153,69.6719661 C102.578187,70.0039997 102.079608,71.0001006 102.411994,71.8301846 L107.231596,84.2814453 C104.572505,86.4396638 101.913415,88.0998319 99.2543243,89.76 C94.2685298,87.6017815 90.4460873,82.4552604 90.113701,77.1427225 C89.9475079,73.8223863 91.1108599,69.1739157 97.7585859,65.5215459 C112.715969,57.7187558 128.171932,57.0546886 134.653465,57.2207054 C129.667671,63.3633274 124.848069,68.6758652 120.028468,73.4903527 Z M50.0460971,53.7062969 C50.0460971,54.5300132 50.7153585,55.1889861 51.5519352,55.1889861 C52.3885119,55.3537294 73.3029301,57.3306483 93.7154022,46.7870808 C100.073385,43.4922159 103.587008,38.2204322 103.252377,32.2896755 C102.917746,26.6884052 99.404124,21.087135 94.3846636,18.1217566 C104.5909,13.1794594 113.960559,12.0262567 121.657065,15.1563783 C122.493642,15.4858648 123.497534,15.1563783 123.832164,14.3326621 C124.166795,13.5089459 123.832164,12.5204864 122.995588,12.1909999 C119.649281,10.873054 115.968343,10.0493378 112.12009,10.0493378 C102.583116,10.0493378 91.7076181,14.4974053 80.49749,22.7345674 L68.6181004,18.2864999 C68.4507851,18.2864999 68.2834697,18.1217566 67.948839,18.1217566 C67.2795777,18.1217566 66.6103163,18.4512431 66.4430009,19.1102161 C66.1083702,19.9339323 66.6103163,20.9223918 67.446893,21.2518782 L77.4858137,25.0409728 C75.1433989,26.8531485 72.6336687,28.9948106 70.2912539,31.1364728 L61.4235406,29.4890403 C61.2562252,29.4890403 61.2562252,29.4890403 61.0889099,29.4890403 C60.2523332,29.4890403 59.5830718,29.9832701 59.4157564,30.8069863 C59.2484411,31.6307025 59.7503871,32.6191619 60.7542792,32.7839052 L67.446893,34.1018511 C62.9293787,38.5499187 58.4118644,43.4922159 53.89435,49.0934862 C53.89435,42.17427 54.7309268,28.6653241 59.2484411,18.6159864 C65.9410549,3.62435133 74.9760836,2.96537836 78.6570212,3.45960809 C83.6764815,4.11858105 88.0266805,7.57818914 88.6959419,11.6967702 C88.8632572,12.5204864 89.699834,13.1794594 90.703726,13.0147161 C91.5403027,12.8499729 92.2095641,12.0262567 92.0422488,11.0377972 C91.0383567,5.43652699 85.5169503,0.823716211 79.1589672,0.164743242 C78.6570212,0.164743242 77.9877598,0 77.3184984,0 C72.299038,0 62.9293787,2.30640539 56.4040802,17.2980404 C49.042205,31.7954457 50.0460971,52.8825807 50.0460971,53.7062969 Z M69.0804428,36.3436305 L71.2409537,44.8104877 C71.4071469,45.6405718 72.4043058,46.304639 73.2352716,45.9726054 C74.0662373,45.8065886 74.7310099,44.8104877 74.3986236,43.9804037 L71.9057263,33.6873615 C74.2324305,31.529143 76.7253277,29.3709245 79.0520318,27.5447396 L83.5392469,39.1659162 C83.8716332,39.9960003 84.8687921,40.4940507 85.6997578,40.1620171 C86.5307236,39.8299835 87.029303,38.8338826 86.6969167,38.0037986 L81.7111222,25.5525379 C84.5364058,23.5603362 87.1954962,21.7341513 89.8545866,20.24 C94.8403811,22.3982185 98.6628236,27.5447396 98.9952099,32.8572775 C99.161403,36.1776137 97.998051,40.8260843 91.350325,44.4784541 C76.3929414,52.2812442 60.9369784,52.9453114 54.4554455,52.7792946 C59.4412401,46.4706558 64.2608414,41.1581179 69.0804428,36.3436305 Z" id="eco"></path>
            </g>
        </g>
    </g>
</svg>