<?xml version="1.0" encoding="UTF-8"?>
<svg width="101px" height="92px" viewBox="0 0 101 92" version="1.1" xmlns="http://www.w3.org/2000/svg" xmlns:xlink="http://www.w3.org/1999/xlink">
    <!-- Generator: Sketch 46.2 (44496) - http://www.bohemiancoding.com/sketch -->
    <title>premium</title>
    <desc>Created with Sketch.</desc>
    <defs></defs>
    <g id="Page-1" stroke="none" stroke-width="1" fill="none" fill-rule="evenodd">
        <g id="Sofalini-05" transform="translate(-128.000000, -3308.000000)">
            <g id="Group-26" transform="translate(128.000000, 3308.000000)">
                <g id="premium">
                    <polygon id="Path" fill="#FFFFFF" points="101 26.774441 82.9552688 0 18.0321859 0 0 26.7451853 49.2180353 92"></polygon>
                    <path d="M101,26.774441 L82.9552688,0 L18.0321859,0 L0,26.7451853 L49.2180353,92 L101,26.774441 Z M65.2570994,28.326821 L49.3042837,83.43174 L35.2395237,28.3249925 L65.2570994,28.3249925 L65.2570994,28.326821 Z M36.5316813,24.8106529 L50.489807,4.2164762 L64.4479327,24.8106529 L36.5316813,24.8106529 Z M68.3808592,28.326821 L95.6588725,28.326821 L52.8059683,82.309053 L68.3808592,28.326821 Z M70.2030525,24.8106529 L82.0598537,4.36641161 L95.83921,24.8106529 L70.2030525,24.8106529 Z M67.3662645,23.433807 L53.8613349,3.51616814 L78.9141398,3.51616814 L67.3662645,23.433807 Z M33.3232413,23.8726424 L21.5918922,3.51616814 L47.1198472,3.51616814 L33.3232413,23.8726424 Z M30.3045476,24.8106529 L5.14197215,24.8106529 L18.6735603,4.73942164 L30.3045476,24.8106529 Z M32.0922415,28.326821 L45.8449392,82.1975157 L5.21253901,28.326821 L32.0922415,28.326821 Z" id="Shape" fill="#D19D53" fill-rule="nonzero"></path>
                </g>
            </g>
        </g>
    </g>
</svg>