<svg width="101" height="92" viewBox="0 0 101 92" xmlns="http://www.w3.org/2000/svg"><title>premium</title><desc>Created with Sketch.</desc><g fill="none"><path fill="#fff" d="M101 26.774l-18.045-26.774h-64.923l-18.032 26.745 49.218 65.255z"/><path d="M101 26.774l-18.045-26.774h-64.923l-18.032 26.745 49.218 65.255 51.782-65.226zm-35.743 1.552l-15.953 55.105-14.065-55.107h30.018v.002zm-28.725-3.516l13.958-20.594 13.958 20.594h-27.916zm31.849 3.516h27.278l-42.853 53.982 15.575-53.982zm1.822-3.516l11.857-20.444 13.779 20.444h-25.636zm-2.837-1.377l-13.505-19.918h25.053l-11.548 19.918zm-34.043.439l-11.731-20.356h25.528l-13.797 20.356zm-3.019.938h-25.163l13.532-20.071 11.631 20.071zm1.788 3.516l13.753 53.871-40.632-53.871h26.88z" fill="#D19D53" fill-rule="nonzero"/></g></svg>